# xmcd CD database file
# Copyright (C) 1993-1996 Ti Kan
#
# Track frame offsets:
# 150
# 11355
# 23500
# 34315
# 44282
# 54187
# 64172
# 75422
# 86432
# 97097
# 108540
# 121710
# 135160
# 149235
# 160907
# 174947
# 188242
# 204427
# 216572
#
# Disc length: 3094 seconds
#
# Revision: 0
# Processed by: cddbd v1.4b41PL1 Copyright (c) Steve Scherf et al.
# Submitted via: inCDius 1.1b5
#
DISCID=fa0c1413
DTITLE=Billy Crash Craddock - Billy Crash Craddock - Crash's Smashes -The Hits
DTITLE=Of Billy Cras
DYEAR=1900
DGENRE=
TTITLE0=Knock Three Times
TTITLE1=Dream Lover 
TTITLE2=You Better Move On
TTITLE3=Ain't Nothin' Shakin'(But The Leaves On The Trees
TTITLE4=I'm Gonna Knock On Your Door
TTITLE5='Til The Water Stops Runnin'
TTITLE6=Sweet Magnolia Blossom
TTITLE7=Rub It In
TTITLE8=Ruby, Baby
TTITLE9=Still Thinkin' 'Bout You
TTITLE10=I Love The Blues And The Boogie Woogie
TTITLE11=Easy As Pie
TTITLE12=Walk Softly
TTITLE13=You Rubbed It In All Wrong
TTITLE14=Broken Down In Tiny Pieces
TTITLE15=A Tear Fell
TTITLE16=The First Time
TTITLE17=I Cheated On A Good Woman's Love
TTITLE18=If I Could Write A Song As Beautiful As You
EXTD=
EXTT0=
EXTT1=
EXTT2=
EXTT3=
EXTT4=
EXTT5=
EXTT6=
EXTT7=
EXTT8=
EXTT9=
EXTT10=
EXTT11=
EXTT12=
EXTT13=
EXTT14=
EXTT15=
EXTT16=
EXTT17=
EXTT18=
PLAYORDER=
